<svg width="11" height="11" viewBox="0 0 11 11" fill="none" xmlns="http://www.w3.org/2000/svg">
<g clip-path="url(#clip0_1_623)">
<path d="M3 0H2C0.89543 0 0 0.89543 0 2V3C0 4.10457 0.89543 5 2 5H3C4.10457 5 5 4.10457 5 3V2C5 0.89543 4.10457 0 3 0Z" fill="white"/>
<path d="M3 6H2C0.89543 6 0 6.89543 0 8V9C0 10.1046 0.89543 11 2 11H3C4.10457 11 5 10.1046 5 9V8C5 6.89543 4.10457 6 3 6Z" fill="white"/>
<path d="M9 6H8C6.89543 6 6 6.89543 6 8V9C6 10.1046 6.89543 11 8 11H9C10.1046 11 11 10.1046 11 9V8C11 6.89543 10.1046 6 9 6Z" fill="white"/>
<path d="M9 0H8C6.89543 0 6 0.89543 6 2V3C6 4.10457 6.89543 5 8 5H9C10.1046 5 11 4.10457 11 3V2C11 0.89543 10.1046 0 9 0Z" fill="white"/>
</g>
<defs>
<clipPath id="clip0_1_623">
<rect width="11" height="11" fill="white"/>
</clipPath>
</defs>
</svg>
